<?xml version="1.0" encoding="UTF-8" standalone="no"?>
<!-- Created with Inkscape (http://www.inkscape.org/) -->

<svg
   width="132.65845mm"
   height="117.48161mm"
   viewBox="0 0 132.65845 117.48161"
   version="1.1"
   id="svg5"
   inkscape:version="1.2.2 (b0a8486541, 2022-12-01)"
   sodipodi:docname="hs-logo_v1.2_2ca.svg"
   inkscape:export-filename="hs-logo_v1.2_2ct.png"
   inkscape:export-xdpi="101.28718"
   inkscape:export-ydpi="101.28718"
   xmlns:inkscape="http://www.inkscape.org/namespaces/inkscape"
   xmlns:sodipodi="http://sodipodi.sourceforge.net/DTD/sodipodi-0.dtd"
   xmlns="http://www.w3.org/2000/svg"
   xmlns:svg="http://www.w3.org/2000/svg">
  <sodipodi:namedview
     id="namedview7"
     pagecolor="#bfbfbf"
     bordercolor="#666666"
     borderopacity="1.0"
     inkscape:showpageshadow="2"
     inkscape:pageopacity="0"
     inkscape:pagecheckerboard="0"
     inkscape:deskcolor="#d1d1d1"
     inkscape:document-units="mm"
     showgrid="false"
     inkscape:zoom="160.37949"
     inkscape:cx="409.12962"
     inkscape:cy="222.50663"
     inkscape:window-width="1920"
     inkscape:window-height="1531"
     inkscape:window-x="1920"
     inkscape:window-y="32"
     inkscape:window-maximized="0"
     inkscape:current-layer="layer1" />
  <defs
     id="defs2">
    <rect
       x="108.85895"
       y="711.87769"
       width="397.18475"
       height="574.84747"
       id="rect7375" />
    <rect
       x="130.99049"
       y="215.92067"
       width="485.88708"
       height="472.07211"
       id="rect790" />
  </defs>
  <g
     inkscape:label="Layer 1"
     inkscape:groupmode="layer"
     id="layer1"
     transform="translate(-36.302696,-44.096127)">
    <text
       xml:space="preserve"
       transform="scale(0.26458333)"
       id="text788"
       style="font-style:normal;font-variant:normal;font-weight:bold;font-stretch:normal;font-size:40px;line-height:1.25;font-family:Georgia;-inkscape-font-specification:'Georgia Bold';letter-spacing:0px;word-spacing:0px;white-space:pre;shape-inside:url(#rect790);fill:#000000;fill-opacity:1;stroke:none" />
    <path
       id="path21610"
       style="font-weight:bold;font-size:136.878px;line-height:1.25;font-family:C059;-inkscape-font-specification:'C059 Bold';letter-spacing:0px;word-spacing:0px;stroke-width:0.264583"
       d="M 45.135749 52.838229 L 45.135749 60.229509 L 47.18937 60.229509 C 54.443898 60.366387 57.181074 60.776957 58.412974 62.282614 C 59.371119 63.651392 59.371572 64.199168 59.371572 72.685596 L 59.371572 131.9533 C 59.371572 140.43973 59.371119 140.85056 58.412974 142.21934 C 57.181074 143.725 54.443898 144.27244 47.18937 144.27244 L 45.135749 144.27244 L 45.135749 151.66424 L 98.381594 151.66424 L 98.381594 144.27244 L 96.328489 144.27244 C 88.937085 144.27244 86.199327 143.725 84.967426 142.21934 C 84.009281 140.85056 84.009345 140.43973 84.009345 131.9533 L 84.009345 105.26242 L 106.98572 105.26242 C 105.99296 102.92535 105.42752 100.18517 105.28091 97.049484 L 84.009345 97.049484 L 84.009345 72.685596 C 84.009345 64.199168 84.009281 63.651392 84.967426 62.282614 C 86.199327 60.776957 88.937085 60.366387 96.328489 60.229509 L 98.381594 60.229509 L 98.381594 52.838229 L 45.135749 52.838229 z M 105.49899 52.838229 L 105.49899 60.229509 L 107.55261 60.229509 C 114.80713 60.366387 117.54432 60.776957 118.77621 62.282614 C 119.73436 63.651392 119.7343 64.06229 119.7343 72.685596 L 119.7343 74.080343 C 123.57163 72.667155 128.08001 71.959543 133.26215 71.959543 C 136.85222 71.959543 140.55701 72.211677 144.37259 72.707817 L 144.37259 72.685596 C 144.37259 64.199168 144.37252 63.651392 145.33067 62.282614 C 146.56257 60.776957 149.43721 60.366387 156.69173 60.229509 L 158.74483 60.229509 L 158.74483 52.838229 L 105.49899 52.838229 z M 134.91063 78.003618 C 129.98186 78.003618 126.25213 78.869659 123.72113 80.601392 C 121.22345 82.299822 119.97459 84.847476 119.97459 88.244337 C 119.97459 91.341475 120.84012 93.706136 122.57185 95.33796 C 124.30359 96.936483 128.54968 98.601276 135.31009 100.333 L 144.37259 102.55819 L 144.37259 79.33687 C 141.72887 78.449817 138.57692 78.003618 134.91063 78.003618 z M 119.7343 115.68349 L 119.7343 131.9533 C 119.7343 135.66199 119.73003 137.80592 119.65006 139.20195 C 123.24093 141.92848 128.19378 143.29369 134.51117 143.29369 C 138.77667 143.29369 142.19812 142.62102 144.78083 141.27934 C 144.37295 140.17752 144.37259 138.23429 144.37259 131.9533 L 144.37259 122.72854 C 142.34779 121.80009 139.64701 120.91204 136.25939 120.06513 L 125.06989 117.3175 C 123.13799 116.8235 121.36241 116.27797 119.7343 115.68349 z M 145.01802 141.77182 C 145.10885 141.92287 145.21229 142.06714 145.33067 142.21934 C 145.21217 142.06699 145.10902 141.92295 145.01802 141.77182 z M 119.02685 141.86587 C 118.94985 141.98277 118.87106 142.09739 118.77621 142.21934 C 118.86964 142.09922 118.95097 141.98338 119.02685 141.86587 z M 112.19315 144.1634 C 111.54512 144.20083 110.83873 144.22817 110.06719 144.24609 C 110.83852 144.22818 111.54528 144.20081 112.19315 144.1634 z M 110.06719 144.24609 C 109.29564 144.264 108.45943 144.27244 107.55261 144.27244 C 108.45942 144.27244 109.29566 144.264 110.06719 144.24609 z M 151.9716 144.1634 C 152.62852 144.20079 153.34602 144.22818 154.12961 144.24609 C 153.34585 144.22817 152.62863 144.2008 151.9716 144.1634 z M 154.13323 144.24609 C 154.9176 144.26398 155.76819 144.27244 156.69173 144.27244 C 155.76836 144.27244 154.91748 144.26398 154.13323 144.24609 z M 105.49899 144.27244 L 105.49899 151.66424 L 158.74483 151.66424 L 158.74483 144.27244 L 157.3258 144.27244 C 152.17469 147.6489 144.90338 149.33777 135.51008 149.33777 C 130.6479 149.33777 125.8192 148.92184 121.02362 148.08926 C 116.22806 147.2567 111.34887 145.99101 106.38679 144.2926 L 106.38679 144.27244 L 105.49899 144.27244 z " />
    <path
       id="path21607"
       style="font-weight:bold;font-size:386.667px;line-height:1.25;font-family:'DejaVu Serif';-inkscape-font-specification:'DejaVu Serif Bold';letter-spacing:0px;word-spacing:0px;white-space:pre;fill:#ffffff;fill-opacity:0.32128769;stroke-width:0.264583"
       d="m 133.26093,71.960134 c -5.18215,0 -9.69051,0.70761 -13.52785,2.1208 v 22.969141 h -14.45339 c 0.14661,3.135675 0.71205,5.875855 1.70481,8.212925 h 12.74858 v 10.42107 c 1.62812,0.59448 3.40369,1.14001 5.33559,1.63401 l 11.1895,2.74763 c 3.38763,0.84691 6.0884,1.73496 8.1132,2.66341 v -20.17035 l -9.0625,-2.22519 c -6.76042,-1.731719 -11.0065,-3.396505 -12.73824,-4.995029 -1.73173,-1.631826 -2.59726,-3.996482 -2.59726,-7.093623 0,-3.396864 1.24885,-5.944514 3.74654,-7.642945 2.531,-1.731735 6.26072,-2.597774 11.1895,-2.597774 3.66629,0 6.81824,0.446198 9.46196,1.333252 v -6.629053 c -3.81558,-0.496141 -7.52037,-0.748274 -11.11044,-0.748274 z m -13.61209,67.242396 c -0.10302,1.79844 -0.33442,2.32385 -0.87385,3.01739 -1.23189,1.50566 -3.96908,2.0531 -11.2236,2.0531 h -1.16582 v 0.0202 c 4.96208,1.69842 9.84126,2.9641 14.63683,3.79666 4.79558,0.83258 9.62428,1.24851 14.48646,1.24851 9.39331,0 16.66461,-1.68887 21.81572,-5.06533 h -0.63407 c -7.3914,0 -10.12916,-0.54744 -11.36106,-2.0531 -0.23738,-0.3052 -0.41551,-0.57713 -0.54984,-0.94 -2.58271,1.34168 -6.00416,2.01435 -10.26966,2.01435 -6.3174,0 -11.27024,-1.36521 -14.86111,-4.09174 z" />
  </g>
</svg>
