<?xml version="1.0" encoding="UTF-8"?><svg id="a" xmlns="http://www.w3.org/2000/svg" viewBox="0 0 566.93 567.03"><defs><style>.b{fill:#b4945f;}</style></defs><path class="b" d="M295.9,154.18V60.31h24.23c14.12,0,28.84,.31,40.51,9.2,11.66,8.59,17.47,23,17.47,37.43,0,13.49-4.9,25.46-15.03,34.67-11.96,10.74-25.46,12.58-40.5,12.58h-26.69Zm256.55,116.55h-14.25L444.44,38.83l-94.07,231.91h-54.47v-102.75h26.08c18.1,0,37.42-2.45,51.54-14.72,12.88-10.73,19.33-29.14,19.33-45.71,0-18.1-6.75-35.58-20.86-47.55-14.42-12.27-31.91-13.5-50.01-13.5h-40.8v224.24h-24.83l-70.88-102.44c38.35,.61,66.27-20.24,66.27-60.43,0-19.64-6.75-38.05-23.32-49.7-15.65-11.36-34.05-11.66-52.77-11.66h-28.84v224.24h-57.37V46.5h-14.72v224.24H14.58V14.24H552.45V270.73Zm-190.19,14.68h102.61l-102.61,100.9v-100.9Zm36.76-97.49l45.42-111.67,45.09,111.67h-90.5Zm96.03,13.81l28.1,69h-157.75l28.1-69h101.54Zm-257.18,83.68l-102.62,100.9v-100.9h102.62Zm-76.33-130.93V60.31h9.51c13.5,0,29.15-.61,41.41,5.21,16.57,7.36,24.54,24.54,24.54,41.73,0,13.8-5.21,27.61-16.26,36.51-11.66,10.12-26.08,10.74-40.5,10.74h-18.71Zm7.36,13.81l70.58,102.44h-77.95v-102.44h7.36Zm383.55,361.99H14.58v-244.87H120.52v224.22h14.72v-104.31l6.14-6.13,111.06,110.44h19.33l-120.26-119.95,106-104.27h23.77v224.22h14.72v-224.22h51.53v224.22h14.72v-104.31l6.14-6.13,111.06,110.44h19.33l-120.26-119.95,105.99-104.27h67.94v244.87ZM0,567.03H566.93V0H0V567.03Z"/></svg>